<svg data-v-e65e57fa="" width="26" height="26" viewBox="0 0 30 30" fill="none" xmlns="http://www.w3.org/2000/svg"><path data-v-e65e57fa="" d="M24.375 3.75H5.625C4.58947 3.75 3.75 4.58947 3.75 5.625V24.375C3.75 25.4105 4.58947 26.25 5.625 26.25H24.375C25.4105 26.25 26.25 25.4105 26.25 24.375V5.625C26.25 4.58947 25.4105 3.75 24.375 3.75Z" stroke="currentColor" stroke-width="2.5" stroke-linecap="round" stroke-linejoin="round"></path><path data-v-e65e57fa="" d="M11.25 14.375C12.9759 14.375 14.375 12.9759 14.375 11.25C14.375 9.52411 12.9759 8.125 11.25 8.125C9.52411 8.125 8.125 9.52411 8.125 11.25C8.125 12.9759 9.52411 14.375 11.25 14.375Z" stroke="currentColor" stroke-width="2.5" stroke-linecap="round" stroke-linejoin="round"></path><path data-v-e65e57fa="" d="M17.3688 16.387C17.879 15.7042 18.908 15.721 19.3956 16.4202L24.8798 24.285C25.4576 25.1137 24.8647 26.25 23.8544 26.25H10L17.3688 16.387Z" stroke="currentColor" stroke-width="2.5" stroke-linecap="round" stroke-linejoin="round"></path></svg>