<svg width="1em" height="1em" viewBox="0 0 48 48" xmlns="http://www.w3.org/2000/svg"><path fill="#007fff" fill-opacity=".01" fill-rule="evenodd" d="M0 0h48v48H0z"></path><g transform="translate(5 8)" stroke-width="4" stroke-linejoin="round" stroke="#007fff" fill="none"><path d="M2 0h34a2 2 0 0 1 2 2v28a2 2 0 0 1-2 2H2a2 2 0 0 1-2-2V2a2 2 0 0 1 2-2z" stroke-linecap="round"></path><circle stroke-linecap="round" cx="9.5" cy="8.5" r="1.5"></circle><path d="m10 16 5 4 6-7 17 13v4a2 2 0 0 1-2 2H2a2 2 0 0 1-2-2v-4l10-10z"></path></g></svg>